<svg id="Layer_1" enable-background="new 0 0 512 512" height="512" viewBox="0 0 512 512" width="512" xmlns="http://www.w3.org/2000/svg"><g><path d="m256 102.237c28.277 0 51.2-22.923 51.2-51.2-2.51-67.843-99.9-67.824-102.4.001 0 28.276 22.923 51.199 51.2 51.199z"/><path d="m436.667 102.237c28.277 0 51.2-22.923 51.2-51.2-2.51-67.843-99.9-67.824-102.4.001 0 28.276 22.923 51.199 51.2 51.199z"/><path d="m499.46 102.456c-8.647 10.541-19.897 18.856-32.75 23.995 2.615 29 44.373 27.838 45.29-1.358v-7.857c0-7.443-5.429-13.603-12.54-14.78z"/><path d="m437.163 132.225c-3.766.022-28.383.669-51.531-18.093-14.749 10.979-24.298 28.543-24.298 48.357v311.682c1.814 49.846 73.474 49.955 75.333 0 0 20.803 16.864 37.667 37.667 37.667s37.666-16.864 37.666-37.667v-301.545c-31.465 15.687-70.736-5.931-74.837-40.401z"/><path d="m75.333 102.237c28.277 0 51.2-22.923 51.2-51.2-2.51-67.842-99.9-67.824-102.4.001 0 28.276 22.923 51.199 51.2 51.199z"/><path d="m22.667 147.761c12.062 0 21.92-9.423 22.623-21.309-12.853-5.139-24.103-13.455-32.75-23.995-7.111 1.176-12.54 7.336-12.54 14.78v7.857c0 12.519 10.148 22.667 22.667 22.667z"/><path d="m126.369 114.132c-23.148 18.761-47.765 18.115-51.531 18.093-4.104 34.477-43.379 56.085-74.838 40.401v301.545c0 20.803 16.864 37.667 37.667 37.667s37.667-16.864 37.667-37.667c1.822 49.854 73.472 49.95 75.333 0v-311.681c0-19.815-9.55-37.379-24.298-48.358z"/><path d="m256 132.238c-25.377 0-48.065-11.709-62.966-30h-35.49c14.367 15.989 23.123 37.116 23.123 60.252v311.682c1.812 49.844 73.474 49.956 75.333 0 0 20.803 16.864 37.667 37.667 37.667s37.667-16.864 37.667-37.667v-167.135-144.548c0-23.135 8.755-44.262 23.123-60.252h-35.49c-14.903 18.292-37.59 30.001-62.967 30.001z"/></g></svg>